<svg width="22" height="27" viewBox="0 0 22 27" fill="none" xmlns="http://www.w3.org/2000/svg">
<g filter="url(#filter0_i)">
<path d="M21.375 9.08984C21.375 10.2266 21.2051 11.2344 20.8652 12.1133C20.5254 12.9922 20.0566 13.7598 19.459 14.416C18.873 15.0723 18.1816 15.6289 17.3848 16.0859C16.5879 16.543 15.7324 16.918 14.8184 17.2109C13.916 17.4922 12.9785 17.7031 12.0059 17.8438C11.0332 17.9727 10.0781 18.043 9.14062 18.0547V26.2461H0.949219C0.949219 23.5625 0.955078 20.8906 0.966797 18.2305C0.978516 15.5703 0.996094 12.8867 1.01953 10.1797C1.04297 8.75 1.04883 7.32031 1.03711 5.89062C1.02539 4.46094 1.05469 3.01953 1.125 1.56641C2.625 1.12109 4.125 0.787109 5.625 0.564453C7.125 0.341797 8.67188 0.230469 10.2656 0.230469C11.168 0.230469 12.0703 0.306641 12.9727 0.458984C13.875 0.599609 14.7363 0.828125 15.5566 1.14453C16.3887 1.46094 17.1562 1.85938 17.8594 2.33984C18.5742 2.80859 19.1895 3.37109 19.7051 4.02734C20.2207 4.68359 20.625 5.43359 20.918 6.27734C21.2227 7.10937 21.375 8.04688 21.375 9.08984ZM13.5703 9.6875C13.5703 8.92578 13.3359 8.33398 12.8672 7.91211C12.4102 7.47852 11.8125 7.26172 11.0742 7.26172C10.8281 7.26172 10.5703 7.28516 10.3008 7.33203C10.043 7.36719 9.79688 7.41406 9.5625 7.47266L9.35156 12.6055C9.51562 12.6289 9.67383 12.6406 9.82617 12.6406C9.97852 12.6406 10.1367 12.6406 10.3008 12.6406C10.7227 12.6406 11.127 12.5703 11.5137 12.4297C11.9121 12.2891 12.2637 12.0898 12.5684 11.832C12.873 11.5625 13.1133 11.252 13.2891 10.9004C13.4766 10.5371 13.5703 10.1328 13.5703 9.6875Z" fill="#804FE8"/>
</g>
<defs>
<filter id="filter0_i" x="0.949219" y="0.230469" width="20.4258" height="30.0156" filterUnits="userSpaceOnUse" color-interpolation-filters="sRGB">
<feFlood flood-opacity="0" result="BackgroundImageFix"/>
<feBlend mode="normal" in="SourceGraphic" in2="BackgroundImageFix" result="shape"/>
<feColorMatrix in="SourceAlpha" type="matrix" values="0 0 0 0 0 0 0 0 0 0 0 0 0 0 0 0 0 0 127 0" result="hardAlpha"/>
<feOffset dy="4"/>
<feGaussianBlur stdDeviation="2"/>
<feComposite in2="hardAlpha" operator="arithmetic" k2="-1" k3="1"/>
<feColorMatrix type="matrix" values="0 0 0 0 0 0 0 0 0 0 0 0 0 0 0 0 0 0 0.25 0"/>
<feBlend mode="normal" in2="shape" result="effect1_innerShadow"/>
</filter>
</defs>
</svg>
